<svg xmlns="http://www.w3.org/2000/svg" viewBox="0 0 200 200" height="200mm" width="200mm"><path d="M121.468 160.343c-3.329-3.154-7.855-7.8-10.06-10.324-4.502-5.157-5.353-5.69-5.972-3.74-.238.75-1.375 1.848-2.527 2.442-1.153.593-2.457 1.59-2.899 2.216-1.132 1.603-6.713 3.282-10.852 3.265-1.926-.008-6.114-.407-9.308-.887l-5.807-.873-2.613 1.893c-2.733 1.98-8.996 4.593-15.001 6.259-3.186.884-3.856.872-6.92-.118-4.833-1.562-12.928-6.362-12.938-7.67-.016-1.662 2.957-2.051 6.44-.844 1.709.592 4.886 1.215 7.061 1.386 3.588.28 4.442.07 9.226-2.279 7.868-3.862 13.44-8.924 17.962-16.318 2.566-4.196 2.71-4.658 1.686-5.411-.615-.453-2.095-.824-3.289-.824-1.935 0-2.345-.348-3.806-3.231-1.439-2.838-1.518-3.332-.65-4.052.755-.626 1.57-.65 3.44-.098 1.347.398 3.977.921 5.845 1.163 2.998.389 3.48.282 4.119-.91 1.065-1.992.967-2.097-1.94-2.097-1.724 0-3.373-.523-4.679-1.483-2.581-1.898-4.751-6.073-4.232-8.142.735-2.928 7.371-13.12 8.424-12.936.55.095 1.827-.943 2.836-2.307 3.591-4.857 5.61-6.632 7.124-6.265 2.404.583 3.753 2.158 3.322 3.877-.413 1.642.146 1.874 2.802 1.16 1.727-.462 2.693-2.484 3.271-6.842.244-1.835.657-3.468.918-3.63.26-.16 1.619.29 3.018 1.004 1.398.713 2.774 1.296 3.056 1.296 1.221 0 13.706-9.075 13.706-9.963 0-1.092-3.991-.582-7.763.993-2.073.866-5.4 1.778-7.394 2.028-5.936.742-7.73 1.417-14.224 5.346-3.49 2.112-8.098 4.275-10.555 4.957-5.268 1.46-10.61 5.13-9.126 6.267 1.38 1.056 1.182 3.383-.691 8.165-1.945 4.961-1.899 4.668-.66 4.192 1.426-.547 1.22.322-.659 2.786-.906 1.188-1.65 2.55-1.651 3.027-.003.478-.401 1.63-.887 2.56-.486.93-1.078 2.467-1.316 3.415-.897 3.575-4.666 3.112-7.32-.899-1.489-2.249-1.664-2.965-1.113-4.547.36-1.033.5-2.472.31-3.199-.208-.792.6-3.104 2.015-5.768 1.298-2.445 2.283-4.523 2.189-4.617-.545-.545-5.51 1.19-6.232 2.178-.473.648-1.61 3.555-2.526 6.461-.972 3.083-2.421 6.108-3.48 7.261-.997 1.087-2.64 3.108-3.651 4.49-3.334 4.556-6.36 4.543-12.053-.055-5.483-4.427-6.199-11.643-2.268-22.865 1.138-3.248 2.069-6.594 2.069-7.434 0-2.278 1.77-6.087 3.63-7.81 1.742-1.615 2.33-1.05.653.628-.544.544-.984 1.677-.978 2.518.005.841.228 1.233.494.87.602-.819 2.255-1.757 9.365-5.312l5.617-2.81 1.953-4.821c1.074-2.652 3.36-6.682 5.08-8.954l3.128-4.132h-1.831c-2.692 0-8.372 1.824-9.35 3.003-.468.562-1.464 1.352-2.215 1.754-1.272.68 2.061-3.403 7.972-9.767 4.642-4.998 13.707-10.006 25.576-14.13 4.35-1.51 9.094-3.28 10.544-3.932 7.915-3.559 13.405-3.934 16.34-1.116.832.8 2.626 2.343 3.986 3.43 2.867 2.292 4.72 5.068 5.338 7.997.39 1.845.196 2.215-1.818 3.46-1.24.766-3.258 1.398-4.484 1.403-1.226.005-3.415.437-4.865.96-1.562.562-5.173.96-8.865.978-5.496.024-7.202.351-14.497 2.767-4.548 1.506-8.936 2.696-9.752 2.644-.815-.055-1.482.198-1.482.556 0 .359.445.652.988.652 1.3 0 1.276 1.725-.031 2.227-1.006.386-5.325 8.782-4.791 9.316.15.15 1.15.046 2.219-.241 1.443-.383 2.32-1.303 3.406-3.575 2.038-4.26 3.66-5.19 7.498-4.3 2.889.67 3.514.517 13.509-3.282 12.974-4.933 14.37-5.214 18.738-3.763 7.082 2.352 9.958 7.164 6.097 10.202-1.477 1.161-2.323 1.334-4.831.99-1.812-.25-5.246 0-8.497.616-3.001.569-6.627 1.035-8.057 1.035-5.097 0-8.32 1.262-9.87 3.866-.783 1.317-1.88 2.765-2.438 3.218-1.522 1.237-5.449.984-7.68-.494-4.142-2.743-6.209-1.638-8.634 4.613-.633 1.63-1.692 3.672-2.354 4.537-.663.864-1.204 1.791-1.204 2.06 0 .27 3.93-1.485 8.732-3.9 14.401-7.241 19.414-9.303 27.776-11.425 9.332-2.368 16.71-2.637 23.46-.857 5.545 1.463 8.54 3.212 10.379 6.06 2.651 4.11 1.459 6.535-2.957 6.014-4.398-.52-18.367.614-21.857 1.773-1.856.616-3.688 1.712-4.077 2.439-.93 1.736-.507 2.048 1.659 1.225 4.783-1.819 9.223.054 11.473 4.841 1.776 3.778 1.801 5.437.099 6.348-2.964 1.586-9.06-.688-13.258-4.946l-3.033-3.076-2.315 4.173c-3.004 5.418-5.568 10.955-6.126 13.235-.421 1.724-.328 1.812 1.934 1.812 1.308 0 2.378-.078 2.378-.17 0-.093-.275-1.13-.613-2.307-.598-2.084-.568-2.128 1.153-1.723.972.228 3.101.95 4.732 1.602 1.631.653 4.742 1.728 6.913 2.387 6.326 1.921 5.438 5.064-1.657 5.867-2.166.245-3.93.63-3.92.854.008.225 1.194 1.135 2.633 2.023 3.539 2.183 3.88 3.617 1.473 6.195-1.584 1.697-2.08 3.032-2.713 7.315l-.775 5.24 3.467 3.51c1.907 1.931 5.194 4.696 7.305 6.145 4.578 3.141 4.85 3.166 21.355 1.94 9.678-.718 13.063-.734 17.463-.08 15.539 2.313 26.87 4.235 29.619 5.025 1.69.486 3.226.73 3.412.543.187-.187 1.25-.14 2.364.105 1.696.373 2.024.757 2.024 2.37 0 2.095-.365 2.254-2.936 1.276-.937-.356-9.481-.727-18.988-.823-15.993-.163-17.458-.082-19.592 1.088-2.653 1.454-5.652 2.2-12.27 3.05-2.582.331-6.09 1.201-7.798 1.933-1.708.732-4.263 1.331-5.678 1.331-2.33 0-3.143-.54-8.625-5.735zm-33.66-14.73c2.032-.57 3.73-1.794 6.133-4.423 1.828-2 3.084-3.844 2.792-4.098-.293-.254-2.49-1.537-4.884-2.85-4.995-2.74-5.823-2.528-7.211 1.853-.46 1.45-1.679 4.517-2.709 6.816-1.03 2.299-1.873 4.26-1.873 4.36 0 .235 4.212-.665 7.752-1.657zm13.543-16.13c1.352-2.837 1.391-3.603.184-3.603-.51 0-1.85-1.393-2.978-3.097-1.892-2.857-1.96-3.148-.885-3.758.64-.363 1.951-.581 2.912-.484.96.097 1.942-.14 2.18-.525.287-.463-.756-.7-3.064-.694l-3.499.008-2.92 4.396c-2.355 3.544-2.738 4.505-1.977 4.954.519.306 2.574 1.556 4.568 2.777 1.993 1.22 3.792 2.25 3.996 2.287.205.039.872-.981 1.483-2.262zm-14.084-17.754c3.761-.802 5.482-2.36 6.204-5.619.355-1.599.27-1.643-2.904-1.502-3.15.14-3.334.047-5.03-2.515l-1.762-2.661-1.835 6.47c-1.01 3.558-1.846 6.724-1.86 7.035-.015.311.791.338 1.788.062.997-.277 3.426-.849 5.399-1.27zM52.33 101.644c2.437-3.475 5.493-6.186 11.777-10.45l2.294-1.558h-2.767c-2.105 0-3.371-.486-5.298-2.035-2.099-1.686-2.76-1.913-3.864-1.322-2.421 1.296-3.974 3.988-4.333 7.51-.91 8.95-1.096 11.663-.8 11.663.175 0 1.521-1.714 2.99-3.808zm44.2-3.132c0-.196-.593-.04-1.318.35-.896.48-1.318 1.38-1.318 2.814v2.109l1.318-2.46c.725-1.352 1.318-2.618 1.318-2.813zm17.614-7.297c-.218-.219-.787-.242-1.263-.054-.525.21-.37.366.399.398.694.031 1.084-.127.865-.346zm-69.673-19.18c0-.38.519-1.096 1.153-1.593 1.067-.837 1.08-.806.187.413-.532.725-1.05 1.441-1.154 1.592-.102.151-.186-.038-.186-.413zm1.977-3.076c0-.137.519-.656 1.153-1.153 1.045-.82 1.068-.797.249.249-.861 1.097-1.402 1.446-1.402.904z"/></svg>